<?xml version="1.0" encoding="utf-8"?>
<!-- Svg Vector Icons : http://www.onlinewebfonts.com/icon -->
<!DOCTYPE svg PUBLIC "-//W3C//DTD SVG 1.1//EN" "http://www.w3.org/Graphics/SVG/1.1/DTD/svg11.dtd">
<svg version="1.1" xmlns="http://www.w3.org/2000/svg" xmlns:xlink="http://www.w3.org/1999/xlink" x="0px" y="0px" viewBox="0 0 256 256" enable-background="new 0 0 256 256" xml:space="preserve">
<metadata> Svg Vector Icons : http://www.onlinewebfonts.com/icon </metadata>
<g><g><g><path fill="#000000" d="M11.3,50l-1.1,0.9L10,114.8c0,35.1,0,64.3,0.1,64.9c0.1,0.6,0.6,1.4,1.2,1.9c0.9,0.9,1.6,0.9,10.4,0.9c9.5,0,9.5,0,10.6-1.2c1.5-1.5,1.5-3.6,0-5.1c-1.1-1.1-1.3-1.2-7.8-1.2h-6.7v-59.3V56.5l74.9,0.1l74.9,0.1l0.1,10.6c0.1,10,0.1,10.6,1.1,11.6l1,1l21,0.1l21,0.1l3,1.7c1.7,0.9,3.6,2.4,4.2,3.2c1.6,2,15.7,31.9,16.9,36c2.3,7.3,2.4,8.9,2.4,29.4c0,19.3,0,19.3-1,20.9c-2,2.9-3.8,3.4-12.6,3.7c-5.6,0.2-8.1,0.4-8.6,0.8c-1.8,1.6-1.1,5.8,1.2,6.4c0.6,0.1,4.8,0.2,9.3,0.1c7.3-0.1,8.5-0.3,10.4-1.2c2.9-1.3,6.2-4.4,7.7-7.3l1.2-2.3v-21c0-28,0.3-26.6-12-52.9c-6.9-14.6-7.9-16.6-10-18.6c-1.2-1.3-3.4-2.9-4.7-3.6c-4.8-2.7-5.6-2.8-25.8-2.8h-18.4V62.1c0-10,0-10.6-1-11.8l-0.9-1.2H92.8C14.3,49.1,12.3,49.1,11.3,50z"/><path fill="#000000" d="M174.5,89.2c-2.7,1.2-4.7,3.1-5.7,5.3c-0.9,1.9-1,2.8-1,14.4c0,13.8,0,14.1,3.3,16.4c3.1,2.2,4.9,2.4,27.2,2.2c19.5-0.1,20.6-0.2,22.1-1.1c2.4-1.4,3.5-3.1,3.4-5.6c0-1.8-1-4.5-5.3-14.2c-3.1-7-5.9-12.6-6.7-13.6c-0.8-0.9-2.6-2.3-3.9-3l-2.5-1.4l-14.5-0.1C177.5,88.4,176.2,88.4,174.5,89.2z M202.9,96.2c0.9,0.3,2.1,1,2.7,1.6c0.6,0.6,3.1,5.8,5.6,11.4l4.5,10.2l-18.8,0.1c-10.3,0-19.5,0-20.3-0.1l-1.5-0.3v-10.5c0-10.3,0-10.5,1.1-11.4c0.6-0.5,1.3-1.1,1.7-1.2C179.2,95.6,201.2,95.7,202.9,96.2z"/><path fill="#000000" d="M61.2,151.4c-4.5,1.2-9.1,3.7-12.6,7.1c-6,5.8-8.7,11.8-8.8,19.8c0,3.4,0.2,5.7,0.8,7.6c3.5,11.8,13.8,19.9,26.2,20.8c13.2,0.9,25.8-7.5,29.8-19.8c1.4-4.5,1.6-10.8,0.4-15.2c-2.5-9.7-10.9-17.8-20.8-20.3C72.6,150.5,64.6,150.5,61.2,151.4z M73.8,158.8c8,2.1,14.1,8.1,15.9,15.9c1.8,7.6-2,16.4-8.9,20.9c-9,5.8-20.2,4.7-27.6-2.8c-4.1-4.1-6-8.6-6-14.2C47.3,165.4,60.8,155.4,73.8,158.8z"/><path fill="#000000" d="M65.2,166.6c-4.6,1.2-8.2,5.1-9.1,9.7c-0.6,2.8-0.1,4.4,1.5,5.5c2.6,1.8,5.9-0.2,5.9-3.6c0-1.8,2.2-3.9,4.8-4.3c2.8-0.5,4.2-1.8,4.2-4C72.4,166.7,69.5,165.4,65.2,166.6z"/><path fill="#000000" d="M171.2,151.5c-8.2,2.4-15,7.9-18.3,15.1c-2,4.2-2.7,7.2-2.7,11.9c0,7.8,2.6,13.9,8.3,19.7c11.1,11.2,29,11.5,41,0.6c4.6-4.2,8.3-12,8.7-18.7c0.8-13-8.6-25.5-21.8-28.8C182.7,150.4,174.8,150.5,171.2,151.5z M184.9,158.9c6.1,1.6,11,5.7,13.9,11.5c1.4,2.9,1.5,3.3,1.5,8.2c0,5,0,5.2-1.8,8.6c-3.6,7.3-11,11.9-19.2,11.9c-10.6,0-19.4-7.2-21.3-17.4c-1.1-5.8,1-12,5.4-16.7C169.1,159.1,177,156.9,184.9,158.9z"/><path fill="#000000" d="M187.2,175c-1.4,0.5-2.3,1.7-2.6,3.3c-0.6,3.6-1.4,4.3-6.1,5.6c-1.6,0.4-2.1,0.8-2.6,1.9c-0.8,1.9-0.4,3.5,1.1,4.6c2.5,2,9,0,12.1-3.7c1.7-1.9,3.1-5.6,3.1-7.9C192.2,176.4,189.2,174.2,187.2,175z"/><path fill="#000000" d="M105.7,176.3c-0.7,0.7-1.2,1.7-1.2,2.5s0.4,1.8,1.2,2.5l1.1,1.2h17.3c19.4,0,19,0,19.5-3.3c0.2-1.4,0.1-1.9-0.9-2.9l-1.2-1.2h-17.4h-17.4L105.7,176.3z"/></g></g></g>
</svg>